<?xml version="1.0" encoding="utf-8"?>
<!-- Generator: Adobe Illustrator 21.1.0, SVG Export Plug-In . SVG Version: 6.00 Build 0)  -->
<svg version="1.1" id="koi" xmlns="http://www.w3.org/2000/svg" xmlns:xlink="http://www.w3.org/1999/xlink" x="0px" y="0px"
	 viewBox="0 0 100 100" style="enable-background:new 0 0 100 100;" xml:space="preserve">
<style type="text/css">
	.st0{fill:#FF0000;}
	.st1{fill:url(#body_1_);}
	.st2{fill:url(#dorsal_1_);}
	.st3{fill:url(#frontLeft_1_);}
	.st4{fill:url(#frontRight_1_);}
	.st5{fill:url(#backRight_1_);}
	.st6{fill:url(#backLeft_1_);}
</style>
<path id="backgroundFish" class="st0" d="M60.3,4c0,0,0,3-2.5,4s-3.8,6-3.8,6s-1.3,2,0,2s-5-3-8.8,0s-1.3,1-1.3,1s5-1,6.3,3
	c1.3,4,2.5,6,2.5,6s-2.5,10-3.8,10c-1.3,0-3.8-2-3.8-2c-1.4,0.5-2.5,7,0,9c0,0-1.3,8-1.3,10s-3.8,10-3.8,10s-6.3-3-6.3-4
	s-1.3,12,5,15c0.1,0,1.1,8.9,2.5,12c1.9,4.2,10.9,13.5,18.8,4c5-6,2.5-18,2.5-18s6.3-3,5-12c0,0-7.5,3-7.5,2s-6.3-16-5-19
	c0,0,5-4,5-8l-3.8,1c0,0,1.3-10,0-11C56.6,25,67.8,9,60.3,4z"/>
<radialGradient id="body_1_" cx="48.5276" cy="45" r="30.5463" gradientTransform="matrix(-1.0832 -0.5 1.8761 -2.5981 19.1205 186.1772)" gradientUnits="userSpaceOnUse">
	<stop  offset="0" style="stop-color:#FFFFFF"/>
	<stop  offset="1" style="stop-color:#FFECD4"/>
</radialGradient>
<path id="body" class="st1" d="M60.3,4c0,0,1.3,5-1.3,6c-2.5,1-3.8,6-3.8,6s-1.3,2,0,2c1.3,0-5-4-10-2c-4.7,1.9-1.3,1-1.3,1
	s5-1,6.3,3c1.3,4,2.5,6,2.5,6s-2.5,10-3.8,10c-1.3,0-3.8-2-3.8-2c-1.4,0.5-2.5,7,0,9c0,0,3.8,10,2.5,17c-0.6,3.1-7.5,3-7.5,3
	s-6.3-3-6.3-4s-1.3,12,5,15c0.2,4.6,1,8.7,2.5,12c7.5-2,12.5-4.5,21.3-1c0.8-4.2,0.8-8.5,0-13c0,0,6.3-3,5-12c0,0-7.5,3-7.5,2
	s-6.3-16-5-19c0,0,5-4,5-8l-3.8,1c0,0,1.3-10,0-11C56.6,25,67.8,9,60.3,4z"/>
<radialGradient id="dorsal_1_" cx="49.6286" cy="53" r="19.87" gradientTransform="matrix(-1.0832 -0.5 1.8761 -2.5981 6.6813 215.5124)" gradientUnits="userSpaceOnUse">
	<stop  offset="0" style="stop-color:#FFE2C0"/>
	<stop  offset="0.2909" style="stop-color:#FFE3C3"/>
	<stop  offset="0.5234" style="stop-color:#FFE8CD"/>
	<stop  offset="0.7358" style="stop-color:#FFF0DE"/>
	<stop  offset="0.935" style="stop-color:#FFFBF6"/>
	<stop  offset="1" style="stop-color:#FFFFFF"/>
</radialGradient>
<path id="dorsal" class="st2" d="M52.8,81c0,0,0-12,1.3-13s-1.1-8.9-1.3-13c-0.1-3.5,1.5-26.6,2.5-30c0,0-8.8,18-5,27
	S47.8,65,52.8,81z"/>
<linearGradient id="frontLeft_1_" gradientUnits="userSpaceOnUse" x1="31.4148" y1="63.59" x2="41.6622" y2="69.5063">
	<stop  offset="0" style="stop-color:#FFE2C0"/>
	<stop  offset="0.402" style="stop-color:#FFF1E0"/>
	<stop  offset="0.7677" style="stop-color:#FFFBF7"/>
	<stop  offset="1" style="stop-color:#FFFFFF"/>
</linearGradient>
<path id="frontLeft" class="st3" d="M40.3,63c-0.3,0.2-5-4-6.3-4c-1.4,4.3,2.3,15.7,5,15L40.3,63z"/>
<linearGradient id="frontRight_1_" gradientUnits="userSpaceOnUse" x1="66.7773" y1="59.3896" x2="60.3304" y2="70.5559">
	<stop  offset="0" style="stop-color:#FFE2C0"/>
	<stop  offset="0.402" style="stop-color:#FFF1E0"/>
	<stop  offset="0.7677" style="stop-color:#FFFBF7"/>
	<stop  offset="1" style="stop-color:#FFFFFF"/>
</linearGradient>
<path id="frontRight" class="st4" d="M60.3,62c1.3,2.6,2,6.1,2.5,10c4.1-2.4,5.7-6.5,5-12C64.1,61.5,61.7,62.3,60.3,62z"/>
<linearGradient id="backRight_1_" gradientUnits="userSpaceOnUse" x1="60.412" y1="35.0818" x2="53.9106" y2="41.5833">
	<stop  offset="0" style="stop-color:#FFE2C0"/>
	<stop  offset="0.402" style="stop-color:#FFF1E0"/>
	<stop  offset="0.7677" style="stop-color:#FFFBF7"/>
	<stop  offset="1" style="stop-color:#FFFFFF"/>
</linearGradient>
<path id="backRight" class="st5" d="M55.3,43c2.7-2.4,4.8-4.9,5-8c-0.9,0.2-1.8,0.5-3.8,1C56.7,37.4,56,40.2,55.3,43z"/>
<linearGradient id="backLeft_1_" gradientUnits="userSpaceOnUse" x1="43.4934" y1="35.7959" x2="48.0095" y2="40.312">
	<stop  offset="0" style="stop-color:#FFE2C0"/>
	<stop  offset="0.402" style="stop-color:#FFF1E0"/>
	<stop  offset="0.7677" style="stop-color:#FFFBF7"/>
	<stop  offset="1" style="stop-color:#FFFFFF"/>
</linearGradient>
<path id="backLeft" class="st6" d="M49.1,36c-0.9,0-2.2-0.8-3.8-2c-2.7,2.3-2.5,5.9,0,9C46.2,40.2,47.6,38,49.1,36z"/>
</svg>
