<?xml version="1.0" encoding="utf-8"?>
<!-- Generator: Adobe Illustrator 21.1.0, SVG Export Plug-In . SVG Version: 6.00 Build 0)  -->
<svg version="1.1" id="Lotus" xmlns="http://www.w3.org/2000/svg" xmlns:xlink="http://www.w3.org/1999/xlink" x="0px" y="0px"
	 viewBox="0 0 100 100" style="enable-background:new 0 0 100 100;" xml:space="preserve">
<style type="text/css">
	.st0{fill:none;stroke:url(#ripple_1_);stroke-width:3;stroke-miterlimit:10;}
	.st1{fill:url(#SVGID_1_);}
	.st2{fill:url(#SVGID_2_);}
	.st3{fill:url(#SVGID_3_);}
	.st4{fill:#FFB700;}
</style>
<linearGradient id="ripple_1_" gradientUnits="userSpaceOnUse" x1="27.519" y1="72.481" x2="73.481" y2="26.519">
	<stop  offset="0" style="stop-color:#CCE0F4"/>
	<stop  offset="6.405089e-02" style="stop-color:#C3DCF2"/>
	<stop  offset="0.1706" style="stop-color:#A9D2EE"/>
	<stop  offset="0.3066" style="stop-color:#80C2E7"/>
	<stop  offset="0.4649" style="stop-color:#47ACDE"/>
	<stop  offset="0.5674" style="stop-color:#1E9CD7"/>
	<stop  offset="0.8652" style="stop-color:#0075BE"/>
	<stop  offset="0.9944" style="stop-color:#005B97"/>
</linearGradient>
<circle id="ripple" class="st0" cx="50.5" cy="49.5" r="31"/>
<g id="outerBlossom">
	<radialGradient id="SVGID_1_" cx="50.5029" cy="49.498" r="44.4971" gradientUnits="userSpaceOnUse">
		<stop  offset="0" style="stop-color:#FFFFFF"/>
		<stop  offset="0.3219" style="stop-color:#FEFDFE"/>
		<stop  offset="0.4588" style="stop-color:#FDF6FC"/>
		<stop  offset="0.5607" style="stop-color:#FAE9F8"/>
		<stop  offset="0.6452" style="stop-color:#F5D8F3"/>
		<stop  offset="0.719" style="stop-color:#EFC0EC"/>
		<stop  offset="0.7852" style="stop-color:#E8A4E3"/>
		<stop  offset="0.8458" style="stop-color:#E082D8"/>
		<stop  offset="0.9021" style="stop-color:#D65BCC"/>
		<stop  offset="0.9527" style="stop-color:#CB30BF"/>
		<stop  offset="1" style="stop-color:#BF00B0"/>
	</radialGradient>
	<path class="st1" d="M95,55.4c-4.5,4.1-8.9,6.3-13.4,7c3,3.1,4.4,8,4.5,14.4c-4.7,1.4-9.8,1.1-15.1-0.6c0.1,5.6-0.9,10.6-3.3,14.8
		c-5.5-1.3-9.6-4.2-12.8-8.1c-2.3,4.5-5.7,8.2-10.3,11.1c-3.6-4.9-6.2-9.4-7-13.4c-5,2.7-9.8,4.3-14.4,4.5
		c-0.9-4.6-0.5-9.7,0.6-15.1C19,70.8,14,69.6,9,66.7c1.8-5.5,4.4-9.8,8.1-12.8C13.3,51.8,9.6,48.5,6,43.6c4.3-3.9,8.7-6.3,13.4-7
		c-2.6-4.3-4.1-9.1-4.5-14.4c5.5-1.1,10.6-1.2,15.1,0.6c-0.2-5.2,0.9-10.1,3.3-14.8c5.1,1.7,9.4,4.3,12.8,8.1
		c2.8-4.6,6.1-8.4,10.3-11.1c4.1,3.7,6.4,8.2,7,13.4c4.5-3.2,9.2-5.1,14.4-4.5c1.1,5.6,0.7,10.7-0.6,15.1c5.1-0.5,10,0.7,14.8,3.3
		c-1.6,5.1-4.2,9.5-8.1,12.8C88.4,47.2,92.2,50.6,95,55.4z"/>
</g>
<g id="middleBlossom">
	
		<radialGradient id="SVGID_2_" cx="53.4981" cy="51.2659" r="33.0347" gradientTransform="matrix(0.9663 -0.2575 0.2575 0.9663 -14.1737 13.6703)" gradientUnits="userSpaceOnUse">
		<stop  offset="0" style="stop-color:#FFFFFF"/>
		<stop  offset="0.3219" style="stop-color:#FEFDFE"/>
		<stop  offset="0.4588" style="stop-color:#FDF6FC"/>
		<stop  offset="0.5607" style="stop-color:#FAE9F8"/>
		<stop  offset="0.6452" style="stop-color:#F5D8F3"/>
		<stop  offset="0.719" style="stop-color:#EFC0EC"/>
		<stop  offset="0.7852" style="stop-color:#E8A4E3"/>
		<stop  offset="0.8458" style="stop-color:#E082D8"/>
		<stop  offset="0.9021" style="stop-color:#D65BCC"/>
		<stop  offset="0.9527" style="stop-color:#CB30BF"/>
		<stop  offset="1" style="stop-color:#BF00B0"/>
	</radialGradient>
	<path class="st2" d="M83.8,45.1c-2.4,3.8-5.2,6.3-8.3,7.6c2.7,1.7,4.7,4.9,6,9.5c-3.1,1.9-6.8,2.6-11,2.4c1.2,4,1.4,7.8,0.4,11.2
		c-4.2,0.1-7.7-1.2-10.7-3.4c-0.8,3.7-2.5,7-5.2,9.9c-3.5-2.8-6.3-5.6-7.6-8.3c-3,2.9-6.2,5-9.5,6c-1.5-3.2-2.2-6.9-2.4-11
		c-3.3,1.5-7.1,1.6-11.2,0.4c0.2-4.3,1.3-7.9,3.4-10.7c-3.1-0.8-6.4-2.4-9.9-5.2c2.3-3.6,5.1-6.2,8.3-7.6c-2.7-2.6-4.7-5.8-6-9.5
		c3.7-1.8,7.4-2.9,11-2.4c-1.1-3.7-1.3-7.4-0.4-11.2c4,0.3,7.6,1.3,10.7,3.4c1.1-3.8,2.8-7.2,5.2-9.9c3.7,1.9,6.2,4.7,7.6,8.3
		c2.6-3.2,5.6-5.4,9.5-6c1.8,3.8,2.6,7.6,2.4,11c3.6-1.4,7.3-1.4,11.2-0.4c-0.1,4-1.2,7.6-3.4,10.7C77.5,40.5,80.8,42.2,83.8,45.1z"
		/>
</g>
<g id="innerBlossom">
	<radialGradient id="SVGID_3_" cx="50.9457" cy="49.9451" r="30.7007" gradientUnits="userSpaceOnUse">
		<stop  offset="0" style="stop-color:#FFFFFF"/>
		<stop  offset="0.1113" style="stop-color:#FEFAFE"/>
		<stop  offset="0.2353" style="stop-color:#FAEDF9"/>
		<stop  offset="0.3654" style="stop-color:#F5D7F3"/>
		<stop  offset="0.4998" style="stop-color:#EDB7E9"/>
		<stop  offset="0.6375" style="stop-color:#E38FDC"/>
		<stop  offset="0.7779" style="stop-color:#D75ECD"/>
		<stop  offset="0.9179" style="stop-color:#C825BB"/>
		<stop  offset="1" style="stop-color:#BF00B0"/>
	</radialGradient>
	<path class="st3" d="M81.6,54c-3.1,2.8-6.2,4.4-9.2,4.8c2,2.2,3,5.5,3.1,10c-3.3,1-6.8,0.7-10.4-0.4c0.1,3.9-0.6,7.3-2.3,10.2
		C59,77.7,56.2,75.7,54,73c-1.6,3.1-3.9,5.7-7.1,7.7c-2.5-3.4-4.3-6.5-4.8-9.2c-3.4,1.9-6.8,3-10,3.1c-0.6-3.2-0.3-6.7,0.4-10.4
		c-3.3,0.5-6.7-0.3-10.2-2.3c1.2-3.8,3-6.8,5.6-8.8c-2.6-1.5-5.2-3.7-7.7-7.1c2.9-2.7,6-4.4,9.2-4.8c-1.8-3-2.8-6.3-3.1-10
		c3.8-0.8,7.3-0.8,10.4,0.4c-0.1-3.6,0.6-6.9,2.3-10.2c3.5,1.2,6.5,3,8.8,5.6c1.9-3.2,4.2-5.8,7.1-7.7c2.8,2.6,4.4,5.7,4.8,9.2
		c3.1-2.2,6.4-3.5,10-3.1c0.7,3.9,0.5,7.4-0.4,10.4c3.5-0.4,6.9,0.5,10.2,2.3c-1.1,3.5-2.9,6.5-5.6,8.8C77.1,48.4,79.7,50.7,81.6,54
		z"/>
</g>
<g id="centerStem">
	<path class="st4" d="M61.2,51.3c-1,0.9-2.1,1.5-3.1,1.6c0.7,0.7,1,1.8,1,3.3c-1.1,0.3-2.3,0.2-3.5-0.1c0,1.3-0.2,2.4-0.8,3.4
		c-1.3-0.3-2.2-1-2.9-1.9c-0.5,1-1.3,1.9-2.4,2.6c-0.8-1.1-1.4-2.2-1.6-3.1c-1.1,0.6-2.3,1-3.3,1c-0.2-1.1-0.1-2.2,0.1-3.5
		c-1.1,0.2-2.2-0.1-3.4-0.8c0.4-1.3,1-2.3,1.9-2.9c-0.9-0.5-1.7-1.2-2.6-2.4c1-0.9,2-1.5,3.1-1.6c-0.6-1-0.9-2.1-1-3.3
		c1.3-0.3,2.4-0.3,3.5,0.1c0-1.2,0.2-2.3,0.8-3.4c1.2,0.4,2.2,1,2.9,1.9c0.6-1.1,1.4-1.9,2.4-2.6c0.9,0.9,1.5,1.9,1.6,3.1
		c1-0.7,2.1-1.2,3.3-1c0.2,1.3,0.2,2.5-0.1,3.5c1.2-0.1,2.3,0.2,3.4,0.8c-0.4,1.2-1,2.2-1.9,2.9C59.7,49.4,60.5,50.2,61.2,51.3z"/>
</g>
</svg>
